Coordinates
version=1
nRows=19
nColumns=34
inDegrees=yes

Units are S.I. units (second, meters, Newtons, ...)
If the header above contains a line with 'inDegrees', this indicates whether rotational values are in degrees (yes) or radians (no).

endheader
time	pelvis_tilt	pelvis_list	pelvis_rotation	pelvis_tx	pelvis_ty	pelvis_tz	hip_flexion_r	hip_adduction_r	hip_rotation_r	knee_angle_r	ankle_angle_r	subtalar_angle_r	mtp_angle_r	hip_flexion_l	hip_adduction_l	hip_rotation_l	knee_angle_l	ankle_angle_l	subtalar_angle_l	mtp_angle_l	lumbar_extension	lumbar_bending	lumbar_rotation	arm_flex_r	arm_add_r	arm_rot_r	elbow_flex_r	pro_sup_r	arm_flex_l	arm_add_l	arm_rot_l	elbow_flex_l	pro_sup_l
      0.00000000	     -4.15597326	     -1.14107442	     -7.74541344	      0.03153318	      1.27192844	     -0.09940657	      2.77361123	      0.53781372	      0.54279699	      4.94854320	     -0.37819324	     -6.69473489	      0.00000000	     -0.85123977	     -4.01051621	     -4.58415137	      3.54379017	      6.28784355	     -2.44339078	      0.00000000	     -7.04702298	      2.41685448	     -1.87838478	      3.11335572	     -7.76895401	     20.11624761	     26.91640768	     77.51268623	      3.92592233	     -6.55098952	     25.96349908	     23.59875618	     65.98572658
      0.01666670	     -6.76022017	     -0.89892908	     -8.27389007	      0.03230927	      1.26947420	     -0.09969395	      5.53542421	      0.74679873	      1.37212880	      5.41742167	      1.75230414	     -4.37952792	      0.00000000	      1.67738403	     -3.66573956	     -4.17071676	      2.99017323	      6.21425781	     -0.89519937	      0.00000000	     -3.44305366	      2.89401191	     -1.82337556	      2.50182779	     -7.77401072	     20.53367730	     26.14863616	     77.51155468	      3.44420899	     -6.16400827	     26.91653900	     23.54887544	     66.42637996
      0.03333330	     -7.62386743	     -0.39000221	     -8.58846731	      0.03192532	      1.26829661	     -0.09909745	      6.29637200	      0.41098367	      0.59858404	      4.73167635	      2.49762730	     -3.23104204	      0.00000000	      2.63843294	     -3.22517698	     -4.72244813	      2.87580503	      6.70575008	     -0.34762227	      0.00000000	     -2.17708631	      2.30206518	     -1.70286379	      2.47697633	     -7.87442207	     22.64469807	     25.63512650	     77.70317477	      3.97707858	     -6.92242368	     31.26573434	     22.92125683	     68.26311993
      0.05000000	     -7.26047579	     -0.15980147	     -8.66881274	      0.03268660	      1.26863228	     -0.09894372	      5.57636160	      0.14330886	      0.72527911	      3.83531181	      2.18539535	     -3.61582886	      0.00000000	      1.74635522	     -2.77467256	     -4.26700851	      1.86639005	      5.94108514	     -1.24289117	      0.00000000	     -2.42441047	      1.85298963	     -1.25699563	      2.49160655	     -7.98054934	     23.96885184	     25.36599751	     77.63317644	      4.91359701	     -7.14696158	     35.59863128	     21.72601229	     69.95989540
      0.06666670	     -7.40574164	     -0.11584894	     -8.78986519	      0.03307352	      1.26834739	     -0.09894717	      5.61864246	      0.16830128	      0.75999936	      3.59700180	      2.25511568	     -3.61761469	      0.00000000	      1.72801759	     -2.69225015	     -4.30446131	      1.59824019	      6.03077647	     -1.28452743	      0.00000000	     -2.43196348	      1.85564817	     -1.33956459	      2.45610995	     -7.85330068	     23.97852553	     25.38446972	     77.63308057	      5.03804191	     -7.10778939	     35.62194611	     21.74651139	     69.97158492
      0.08333330	     -7.47162524	      0.02157324	     -8.63640138	      0.03258435	      1.26569911	     -0.09856567	      5.51536733	      0.11212174	      1.41029254	      3.23716819	      2.46165013	     -3.49123296	      0.00000000	      1.58025487	     -2.51328526	     -4.19044273	      1.30382958	      6.00459326	     -1.31969385	      0.00000000	     -2.16982123	      1.61445221	     -1.35355401	      2.41265282	     -7.56493211	     23.89399587	     25.41672763	     77.63679761	      5.08768525	     -7.19521656	     35.77813817	     21.64937780	     70.06235219
      0.10000000	     -7.51209858	      0.04693370	     -8.51301348	      0.03253142	      1.26654240	     -0.09865247	      5.50216336	      0.06919131	      1.46070147	      3.17367093	      2.47720723	     -3.50568644	      0.00000000	      1.57992222	     -2.46011759	     -4.21522811	      1.24838792	      6.00020159	     -1.34639598	      0.00000000	     -2.13684929	      1.63591554	     -1.32871141	      2.45077196	     -7.44523158	     23.87611765	     25.44291332	     77.64020412	      5.17190708	     -7.15304285	     35.78889465	     21.66492624	     70.07745197
      0.11666670	     -7.52941845	      0.03874453	     -8.49977346	      0.03243989	      1.26573809	     -0.09896969	      5.50458238	      0.06769827	      1.46796830	      3.16496343	      2.47647703	     -3.50570076	      0.00000000	      1.56330979	     -2.44321027	     -4.21624570	      1.25539549	      5.99729804	     -1.34806542	      0.00000000	     -2.13415787	      1.63434668	     -1.32530470	      2.45397554	     -7.43212013	     23.87395563	     25.44548586	     77.64060714	      5.18092992	     -7.15147380	     35.78786088	     21.66665187	     70.07853703
      0.13333330	     -7.67910152	      0.18479482	     -8.49397574	      0.03300586	      1.26605128	     -0.09869088	      5.51100448	     -0.02939429	      2.60847588	      2.83602591	      1.44201673	     -5.35076109	      0.00000000	      1.65550344	     -2.29286645	     -3.71560935	      1.09215378	      5.14205291	     -2.54325416	      0.00000000	     -1.93176498	      1.34807327	     -0.09055222	      1.73168438	     -6.80495276	     20.57456329	     25.26468748	     77.84454954	      5.73989723	     -6.82217501	     34.60538115	     21.62100543	     70.87991315
      0.15000000	     -7.59910420	      0.21847723	     -8.12820175	      0.03947427	      1.27247511	     -0.09706581	      5.03801729	     -0.08964034	      2.44971677	      2.51527964	      1.05080469	     -5.09152750	      0.00000000	      1.37734678	     -2.26831976	     -3.86526696	      1.02161956	      4.82052166	     -2.45319922	      0.00000000	     -1.69805074	      1.20869422	     -0.38785855	      1.19223611	     -6.54669060	     20.09783368	     25.35731633	     77.96873365	      5.53093267	     -6.80149968	     34.38870698	     21.52865983	     71.05684513
      0.16666670	     -7.56159015	      0.20505347	     -7.96496831	      0.03965662	      1.27187181	     -0.09720788	      4.90395088	     -0.09360592	      2.42272224	      2.66050776	      0.95538618	     -5.06871678	      0.00000000	      1.28151260	     -2.30516725	     -3.96945218	      1.12559954	      4.75901567	     -2.48937377	      0.00000000	     -1.66609890	      1.23735965	     -0.38535158	      0.94762438	     -6.41057852	     20.07271410	     25.32253869	     77.98624037	      5.39418188	     -6.79571107	     34.35959270	     21.50591655	     71.07420473
      0.18333330	     -7.47295254	      0.14599586	     -7.95282646	      0.03954995	      1.27116828	     -0.09712636	      4.68441933	     -0.02562388	      2.27331853	      2.63864949	      0.78799228	     -5.07900201	      0.00000000	      1.10552515	     -2.39591257	     -4.09738088	      1.21175112	      4.61234428	     -2.51337291	      0.00000000	     -1.49941948	      1.14816727	     -0.45739539	      0.56552810	     -6.28078158	     20.01336464	     25.24889070	     78.00975758	      5.27392688	     -6.74324401	     34.30128755	     21.50808030	     71.09818160
      0.20000000	     -7.45688542	      0.13029088	     -7.83752211	      0.03378214	      1.26661727	     -0.09885556	      4.43231775	     -0.04807999	      1.84956381	      2.10301991	      0.01943126	     -5.17404256	      0.00000000	      1.01824801	     -2.35345054	     -4.27444263	      0.91472076	      4.20567996	     -2.55094915	      0.00000000	     -1.41650070	      1.28285963	     -0.25891041	      0.52351878	     -6.27187150	     19.39816892	     25.25340751	     78.13740388	      5.19645323	     -6.67531888	     33.85167690	     21.56131545	     71.23725944
      0.21666670	     -7.46791948	      0.12042060	     -7.90751214	      0.03273842	      1.26701156	     -0.09873691	      4.47256169	     -0.01879295	      1.79819991	      1.93040158	      0.03542624	     -5.23307908	      0.00000000	      1.09402260	     -2.36174337	     -4.24205112	      0.80111805	      4.20134230	     -2.54478580	      0.00000000	     -1.40446287	      1.22037129	     -0.15146562	      0.82386209	     -6.30561383	     19.30849863	     25.33516304	     78.15144541	      5.21988143	     -6.64615060	     33.80398702	     21.57536500	     71.25353683
      0.23333330	     -7.49992559	      0.14676697	     -7.94383886	      0.03339778	      1.26778641	     -0.09847486	      4.52313559	     -0.03210141	      1.71863091	      1.78090025	     -0.03253962	     -5.29155776	      0.00000000	      1.17045345	     -2.32541576	     -4.27196666	      0.66534218	      4.16190504	     -2.55480310	      0.00000000	     -1.40721642	      1.26071954	     -0.05098779	      1.07989801	     -6.32647349	     19.21516535	     25.40566220	     78.16912820	      5.25732439	     -6.63902459	     33.74384757	     21.58946968	     71.27130801
      0.25000000	     -7.49738879	      0.16040146	     -7.93590762	      0.03802863	      1.27223868	     -0.09733010	      4.54415439	     -0.02374339	      1.72260276	      1.77975188	     -0.04320032	     -5.28963532	      0.00000000	      1.16781991	     -2.33508482	     -4.27203589	      0.66942975	      4.15484124	     -2.55392842	      0.00000000	     -1.41182615	      1.25892470	     -0.05469830	      1.07750656	     -6.32759713	     19.21001981	     25.40465138	     78.17035569	      5.26134911	     -6.63473756	     33.74025201	     21.59171005	     71.27254236
      0.26666670	     -7.46348238	      0.15137859	     -7.93570463	      0.03330674	      1.26776642	     -0.09857108	      4.54480129	     -0.01558167	      1.72157998	      1.76936909	     -0.05040640	     -5.28924480	      0.00000000	      1.18114874	     -2.33254122	     -4.27570408	      0.65043961	      4.15121330	     -2.55325277	      0.00000000	     -1.40627520	      1.25591426	     -0.05195221	      1.07439871	     -6.33005831	     19.20547439	     25.40395697	     78.17137001	      5.25104746	     -6.63496199	     33.73791145	     21.59041791	     71.27360408
      0.28333330	     -7.68126312	      0.12014300	     -8.15414113	      0.03458157	      1.26765712	     -0.09824178	      4.70156344	      0.09128131	      2.16595126	      1.48719223	     -1.21609907	     -6.10020286	      0.00000000	      1.27666584	     -2.40256685	     -4.55085172	      0.35036327	      3.63210311	     -2.48538037	      0.00000000	     -1.40795981	      1.36368297	      0.52558220	      0.19959375	     -5.58619735	     11.00273058	     27.04088005	     82.53394319	      4.59287627	     -6.06176086	     27.16600950	     22.80098396	     75.01941391
      0.30000000	     -7.68987432	      0.12574326	     -8.10923211	      0.03392280	      1.26800675	     -0.09832282	      4.72635749	      0.08662132	      2.05253579	      1.45982021	     -1.25328696	     -6.15562924	      0.00000000	      1.24293158	     -2.38839195	     -4.60641660	      0.26070793	      3.64649139	     -2.51977458	      0.00000000	     -1.38176725	      1.34130682	      0.57618954	      0.32793567	     -5.66607976	     10.99825054	     27.06137825	     82.56538327	      4.58319291	     -6.11672743	     27.17194937	     22.78239770	     75.04784732
